<svg version="1.2" xmlns="http://www.w3.org/2000/svg" viewBox="0 0 1222 391" width="1222" height="391">
	<title>file</title>
	<style>
		.s0 { fill: #000000 } 
	</style>
	<path id="Path 0" fill-rule="evenodd" class="s0" d="m201 0.7c5.2 0.2 13.3 0.9 18 1.4 4.7 0.6 13 1.9 18.5 3 5.5 1.1 15.3 3.8 21.8 6 6.4 2.1 15.4 5.6 19.9 7.7 4.6 2.1 11.9 6 16.3 8.7 4.4 2.7 11.1 7.2 15 10.1 3.9 2.8 10.3 8.3 21.6 18.9l-12.3 11.5c-6.8 6.4-14.7 13.7-22.8 21l-7.8-6.1c-4.2-3.4-10.2-7.9-13.2-9.9-3-2.1-9.6-5.8-14.5-8.4-4.9-2.5-12.7-6-17.3-7.6-4.5-1.7-12.8-4-18.4-5.2-8.3-1.7-13.8-2.1-28.3-2.2-12.8 0-20.6 0.4-27 1.6-4.9 1-13.1 2.9-18 4.3-4.9 1.5-13.3 4.6-18.5 7.1-5.2 2.5-11.8 5.9-14.5 7.6-2.8 1.8-8.6 6-13 9.4-4.4 3.4-11.6 9.9-16.1 14.5-4.4 4.6-10.1 11.1-12.5 14.4-2.5 3.3-6.5 9.2-8.8 13-2.3 3.8-6 11.3-8.3 16.5-2.2 5.2-5.3 14.4-6.9 20.5-1.5 6.1-3.3 16.8-4 24-1 10.4-1 15.6 0 26 0.7 7.2 2.5 17.9 4.1 24 1.5 6.1 4.6 15.1 6.7 20 2.1 4.9 5.6 12.1 7.8 16 2.1 3.9 6.5 10.4 9.6 14.5 3.2 4.1 8.9 10.6 19.8 21.5l0.4-59c0.4-49.7 0.7-60.3 2.1-67.5 0.9-4.7 2.9-12.1 4.4-16.5 1.5-4.4 4.8-11.5 7.2-15.8 2.5-4.4 7.7-11.3 11.5-15.5 3.8-4.1 9.9-9.7 13.5-12.5 3.6-2.7 10.6-6.9 15.5-9.3 4.9-2.4 13.5-5.6 19-7 8.3-2.2 12.3-2.7 23.5-2.8 9.9-0.1 15.6 0.4 21.5 1.8 4.4 1 11.4 3.2 15.5 4.9 4.1 1.7 10.2 4.7 13.5 6.6 3.3 2 8.6 5.7 11.8 8.3 3.1 2.6 5.7 5.5 5.7 6.3 0 0.8-7.5 8.6-33.2 33l-6.1-4c-3.4-2.1-9.1-4.9-12.7-6.2-4.6-1.6-8.9-2.3-14.5-2.3-5.2 0-10.3 0.6-14.5 1.9-3.6 1.1-9.2 3.8-12.5 5.9-3.3 2.1-7.9 6-10.2 8.5-2.4 2.6-5.6 7.5-7.3 11-1.6 3.4-3.7 9.6-4.6 13.7-0.8 4.1-1.3 7.7-0.9 8 0.4 0.3 21.1 0.5 46 0.5 44.5 0 45.4 0 48.2 2.1 2.3 1.7 2.9 3.2 3.5 7.5 0.3 3 0.6 12.7 0.8 37.9h-98v139.5l-4.2-0.7c-2.4-0.4-7.9-1.9-12.3-3.4-4.4-1.4-11.6-4.2-16-6.1-4.4-1.9-12.3-6-17.5-9.1-5.2-3.1-14-9-19.5-13.1-5.4-4.2-14.2-11.9-19.5-17.1-5.2-5.2-12.5-13.3-16.1-18-3.7-4.7-8.7-11.6-11.2-15.5-2.4-3.9-7-11.9-10-18-3-6.1-7.4-16.4-9.7-23-2.2-6.6-5.2-17.4-6.5-24-1.3-6.6-3-18.1-3.6-25.5-0.9-10-0.9-17-0.1-27 0.6-7.4 2.1-18.4 3.2-24.5 1.2-6.1 3.9-16.4 6.1-23 2.2-6.6 6.7-17.6 10-24.5 3.3-6.9 8.6-16.3 11.6-21 3-4.7 8.8-12.5 12.8-17.5 4-4.9 11.5-13 16.7-18 5.1-4.9 12.9-11.7 17.3-15 4.4-3.3 12-8.4 17-11.4 5-3 12.8-7.2 17.5-9.3 4.7-2.2 13.7-5.7 20-7.8 6.3-2.1 16-4.8 21.5-5.9 5.5-1.1 14.3-2.5 19.5-3.1 5.2-0.5 11.3-1.2 13.5-1.4 2.2-0.2 8.3-0.1 13.5 0.1zm931.2 245l21.6 0.6c17.8 0.4 23.1 0.9 29.7 2.7 4.4 1.1 10.2 3.3 13 4.8 2.7 1.5 7.5 5.2 10.6 8.2 3 3 6.7 8 8.2 11 1.5 3 3.4 8 4.2 11 0.8 3 1.8 9.1 2.1 13.5 0.4 5.5 0.1 11-1 17.5-1.1 6-3 12.2-5.1 16.8-2.2 4.5-5.5 9.1-8.8 12.5-2.9 2.8-8.2 6.6-11.7 8.4-3.6 1.8-9.7 4-13.5 4.9-5.6 1.4-11.6 1.8-29.3 1.8-21.2 0.1-22.4 0-23.8-1.9-1.2-1.7-1.4-10.3-1.3-106.6zm11.8 101.8c23.5-1.1 31.5-2 34.5-2.9 2.7-0.8 7.1-2.9 9.7-4.6 2.7-1.7 6.2-4.9 7.8-7.3 1.7-2.3 4-6.7 5.1-9.7 1.4-3.6 2.3-9.1 2.7-15.5 0.3-6.2 0-12.5-0.7-16.5-0.7-3.6-2.5-8.9-4-11.9-1.4-2.9-4.6-7.2-7.1-9.4-2.5-2.3-6.8-5.1-9.5-6.4-2.8-1.2-8.2-2.7-12-3.3-3.9-0.5-11.4-1-16.8-1h-9.7zm-846.1-46.6c0.3 0 8.2 7.8 34.4 34.6l-5.4 4.8c-3 2.7-8.8 7.5-12.9 10.6-4.1 3.2-10.6 7.8-14.5 10.3-3.8 2.5-11 6.6-16 9-4.9 2.5-13.3 6.1-18.5 8.1-5.2 1.9-12.9 4.4-17 5.6-4.1 1.1-14.2 3.2-22.5 4.6-8.2 1.3-18.3 2.5-29.5 2.5v-47.5l11.2-1.3c6.2-0.7 15.1-2.1 19.8-3.2 4.7-1 12.1-3 16.5-4.5 4.4-1.5 13-5.3 19-8.4 6.1-3 15.3-8.8 20.5-12.7 5.2-4 10.6-8.4 11.9-9.8 1.4-1.4 2.7-2.6 3-2.7zm667.1-270.3c5.2 0.3 12.4 1.1 16 1.9 3.6 0.7 9.2 2.3 12.5 3.6 3.4 1.2 7.4 3.7 9.3 5.5 3.1 3.2 3.2 3.6 2.6 9.1-0.3 3.2-1.3 7.8-2 10.3-0.8 2.5-2.1 5.5-2.9 6.7-0.8 1.3-2.4 2.3-3.5 2.3-1.1 0-4.2-1.1-7-2.5-2.7-1.4-8.5-3.7-12.7-5.2-6.4-2.2-9.6-2.6-17.8-2.7-8.4 0-10.8 0.4-15.4 2.5-3.4 1.5-6.9 4.1-9.3 6.9-2.5 2.9-4.2 6.1-4.8 9.2-0.7 3.2-0.7 6.1 0 8.8 0.6 2.6 2.5 5.5 5.4 8.2 2.3 2.4 10.3 7.6 17.7 11.7 7.4 4 16.1 9.3 19.4 11.6 3.3 2.3 7.9 6.4 10.3 9.1 2.4 2.7 5.5 7.4 7 10.4 2.1 4.5 2.7 7.3 3 15.5 0.3 7.5 0 11.5-1.3 16-0.9 3.3-3.1 8.7-4.8 12-1.8 3.3-6.1 8.9-9.7 12.6-3.6 3.6-9.6 8.4-13.5 10.7-3.8 2.2-11 5.4-16 7.1-4.9 1.6-12.8 3.5-17.5 4.1-5.1 0.8-13.8 1-22 0.7-9.2-0.3-16.1-1.2-21.5-2.6-4.4-1.2-11.1-3.6-14.9-5.4-3.8-1.8-7.7-4.3-8.8-5.7-1.1-1.5-1.8-4.1-1.8-6.5 0-2.2 0.6-6.5 1.3-9.5 0.8-3 2-6.8 2.8-8.4 0.8-1.6 2.3-3.5 3.4-4.3 1.8-1.2 3.2-0.8 12.5 3.7 5.8 2.8 13.7 6 17.5 7.2 5.8 1.7 9 2 18.5 1.6 10-0.3 12.3-0.7 17.5-3.1 3.3-1.6 7.3-4 8.8-5.5 1.6-1.5 3.7-4.3 4.7-6.2 1-1.9 2.1-5.1 2.5-7 0.4-1.9 0.4-5.1 0.1-7-0.3-2.2-2.3-5.4-5-8.5-2.7-3.1-7.4-6.7-12.2-9.4-4.4-2.4-12.2-6.9-17.4-9.9-5.2-3.1-12-8.1-15.1-11.2-3.8-3.6-6.8-7.9-9-12.5-2.6-5.7-3.3-8.6-3.7-15.5-0.3-5 0-10.8 0.8-14 0.7-3 2.5-8.3 4.1-11.8 1.7-3.5 5.4-8.8 8.7-12.3 3.1-3.4 8.2-7.7 11.2-9.7 3-2 8.2-4.7 11.5-6 3.3-1.3 8.7-3.1 12-3.9 3.3-0.9 8.9-1.9 12.5-2.4 3.6-0.4 10.8-0.6 16-0.3zm-355.5 2.5c6.6-0.1 13.4 0.3 15 0.8 1.7 0.6 3.3 1.7 3.8 2.5 0.4 0.9-5.6 30.6-14.2 70.3-8.2 37.8-15.2 70.5-16.1 76.3h30.3c24.7 0 30.6 0.2 32.2 1.4 1.6 1.2 2 2.4 1.8 6.8-0.1 2.9-1.1 8.2-2.2 11.8-1.1 3.6-2.9 7.5-6.1 11h-96l-2.5-2.5c-1.6-1.6-2.5-3.7-2.5-5.5 0-1.7 8.1-40.3 18-85.8 9.9-45.5 18.5-83.3 19-84 0.5-0.7 2.4-1.6 4.2-2.1 1.8-0.5 8.7-1 15.3-1zm182-0.1c9.9 0 19.7 0.4 21.8 1 3.1 0.8 3.9 1.5 4.7 4.7 0.5 2.1 6.9 40.9 14.1 86.3 10.5 66.7 12.8 83 12 85.2-0.8 2-2.2 3.1-4.8 3.8-2.1 0.5-9 1-15.3 1-6.3 0-13.2-0.5-15.2-1-2.7-0.7-3.9-1.7-4.3-3.3-0.3-1.2-1.6-9.9-3-19.2-1.4-9.4-2.5-17.4-2.5-17.8 0-0.4-16.5-0.6-73.2-0.2l-10.7 18.4c-6.1 10.6-11.8 19.3-13.4 20.5-2.6 1.9-4.2 2.1-18.1 2.1-12.2 0-15.6-0.3-17-1.5-0.9-0.8-1.7-2.3-1.6-3.3 0-0.9 0.7-3.2 1.6-5 0.9-1.8 23-39.4 49.2-83.7 26.1-44.3 48.3-81.6 49.2-83 0.8-1.3 3.1-3 5-3.7 2.3-0.8 9.6-1.3 21.5-1.3zm-49.2 110.1c-0.2 0.5 11.6 0.9 26.2 0.9 20.5 0 26.5-0.3 26.5-1.3 0-0.7-2.3-17.3-5-37-2.8-19.6-5.4-35.7-5.8-35.7-0.4 0-9.9 16.2-21.2 36.1-11.3 19.9-20.6 36.5-20.7 37zm328.2-110.1c6.6 0 13.5 0.4 15.3 1 2.6 0.8 3.2 1.5 3.2 3.7 0 1.5-2.9 16.5-6.5 33.3-3.6 16.8-6.8 31.3-7 32.2-0.5 1.7 1.7 1.8 36 1.8 20.1 0 36.5-0.2 36.5-0.5 0-0.3 3.2-15.1 7-33 3.9-17.9 7.5-33.4 8-34.5 0.6-1.2 2.8-2.5 5.3-3.1 2.4-0.6 9.8-1 17.4-0.8 11 0.3 13.5 0.7 15 2.1 1.7 1.7 1.1 5.2-16 84-9.8 45.3-18.5 84.5-19.2 87.3-1 3.8-2.1 5.3-4.2 6.4-1.6 0.8-7.4 1.6-13.8 1.8-6.3 0.3-13.2 0-16.2-0.6-3-0.6-5.5-1.8-5.8-2.6-0.3-0.8 2.9-17.4 7.1-36.8 4.1-19.4 7.7-36 8-37 0.4-1.6-1.8-1.7-72.1-1.7l-7.9 36.7c-5 23.5-8.4 37.4-9.5 38.6-0.9 0.9-4.1 2.2-7.1 2.8-3 0.6-10.2 0.9-16 0.7-5.8-0.3-11.5-1-12.7-1.6-1.4-0.7-2.3-2.1-2.3-3.5 0-1.2 8.1-39.8 18-85.7 9.9-45.9 18.6-84.6 19.3-86 0.7-1.4 2.8-3.1 4.7-3.7 1.9-0.7 8.9-1.2 15.5-1.3zm-516.5 1l1.1 2.2c0.8 1.7 0.7 4.3-0.6 10.8-0.9 4.7-2.5 10.2-3.6 12.2-1 2.1-2 3.9-2.1 4-0.2 0.1-15.4 0.5-67.3 1.3l-10.2 47 61.7 0.5 1.1 2.2c0.7 1.3 0.9 4.1 0.5 6.8-0.3 2.5-1.3 6.8-2.1 9.7-0.8 2.9-2.6 6.6-6.5 11.3h-61l-0.5 2.2c-0.3 1.3-3.7 16.7-7.5 34.3-3.8 17.6-7.5 32.5-8.2 33.2-0.7 0.7-3.8 1.7-6.8 2.3-3 0.5-9.1 1-13.5 1-4.4 0-9.8-0.5-12-1-2.2-0.5-4.6-1.5-5.2-2.2-1-1.1 2.3-18 16.7-84.8 9.9-45.9 18-83.9 18-84.3 0-0.4 1.1-2.1 2.5-3.8 1.4-1.7 3.5-3.5 4.8-3.9 1.2-0.5 24.4-0.9 100.7-1zm-215.2 35c0.2 0.8-1.9 10-4.7 20.5-2.7 10.4-7 24.8-9.5 32-2.5 7.1-6.6 18.2-13.4 36l13.9 0.2c10.3 0.2 13.9 0.6 13.9 1.5 0 0.7-5 9.4-11.1 19.3-6 9.9-10.8 18.1-10.7 18.2 0.2 0.2 5.3 0.5 11.3 0.8 6.1 0.4 12 0.8 13.3 1 2 0.4-2 6.5-38.9 58.7-22.6 32.1-41.3 58.4-41.5 58.5-0.2 0.2-1-0.1-1.8-0.5-1.2-0.6 1.6-8.9 14-42.2 8.4-22.8 15.4-41.9 15.4-42.3 0-0.4-8.3-0.7-18.5-0.7-14.3 0-18.4-0.3-18.1-1.3 0.1-0.7 6-9.7 13-20 6.9-10.3 12.6-18.9 12.6-19.2 0-0.3-4.7-0.5-10.5-0.5-9.5 0-10.4-0.2-9.9-1.8 0.3-0.9 5.3-9.6 11.1-19.2 5.8-9.6 16-25.8 22.7-36 6.7-10.2 16-23.7 20.6-30 4.6-6.3 12.4-16.7 17.4-23 5.2-6.6 9.2-10.8 9.4-10zm227.7 176.3c10.7 0.3 14.3 0.8 20 2.8 3.9 1.3 9.4 4.2 12.4 6.4 3 2.2 6.9 6 8.7 8.5 1.8 2.5 4.4 7.4 5.7 11 1.4 3.6 3.1 10.3 3.7 15 0.8 5 1 12.4 0.7 18-0.3 5.2-1.3 12.2-2.2 15.5-0.8 3.3-3 8.9-4.7 12.5-1.9 3.8-5.4 8.8-8.7 12-3.1 3.1-8.1 6.8-11.1 8.2-3 1.5-8.4 3.4-12 4.3-4 1.1-10.4 1.7-16.5 1.8-5.5 0-12.7-0.6-16-1.3-3.3-0.7-8.8-2.5-12.2-4.1-3.7-1.7-8.5-5.1-11.6-8.2-3-2.9-6.5-7.7-8-11-1.5-3.1-3.5-8.8-4.4-12.5-1.2-4.7-1.7-10.8-1.7-20.2 0-9.7 0.5-15.3 1.8-20 1-3.6 3-9.2 4.6-12.5 1.6-3.4 5.2-8.4 8.3-11.5 3-3 7.6-6.7 10.3-8.2 2.7-1.5 8.3-3.7 12.4-4.8 6.2-1.7 9.8-2 20.5-1.7zm-20.7 16.3c-1.8 0.9-4.6 2.6-6.1 3.8-1.6 1.1-4.3 4.3-6.1 7.1-1.8 2.7-4.1 7.2-5 10-1.1 2.9-2 9.5-2.3 16-0.3 6.1 0 14.3 0.6 18.5 0.7 4.6 2.4 10 4.4 13.9 2.3 4.7 4.6 7.6 8.2 10.3 2.9 2.1 7.6 4.4 11 5.4 4.2 1.1 8.6 1.5 14.5 1.2 6.3-0.3 9.9-1.1 14-2.9 3-1.4 7.1-3.9 9-5.6 1.9-1.7 4.7-5.3 6.2-7.9 1.5-2.7 3.4-7.8 4.2-11.4 0.9-3.7 1.6-11 1.6-17 0-5.8-0.6-13.4-1.4-17-0.7-3.6-2.1-8.1-3.1-10-1-1.9-3.2-5.3-4.9-7.4-1.9-2.4-5.6-5-9.6-6.9-5.5-2.7-7.8-3.2-15.5-3.4-4.9-0.1-10.7 0.2-12.7 0.7-2.1 0.5-5.3 1.7-7 2.6zm-84.8-15.6c20.6 0 28 0.3 29.3 1.2 1.3 0.9 1.9 2.7 2 5.6 0.2 3.3-0.3 4.7-1.8 5.8-1.6 1.1-6.4 1.4-45.5 1.4v38h22c18.7 0 22.1 0.2 22.5 1.5 0.3 0.8 0.5 3.1 0.5 5 0 1.9-0.7 4.2-1.6 5-1.3 1.2-5.2 1.5-43.4 1.5v22.7c0 16.8-0.3 23.3-1.2 24.6-1.1 1.5-2.5 1.7-15.3 1.2v-111l2.5-1.2c1.8-0.9 9.9-1.3 30-1.3zm202.7 0c8.7 0 19 0.4 22.8 0.9 3.9 0.5 9.7 2 13 3.2 4.1 1.5 7.5 3.8 10.8 7.1 3.4 3.4 5.1 6.3 6.2 10 0.8 2.9 1.5 7.1 1.5 9.3 0 2.2-0.7 6.3-1.5 9.2-1.1 3.9-2.8 6.5-6.2 9.9-2.7 2.5-6.9 5.6-9.6 6.7-2.6 1.2-4.7 2.4-4.7 2.7 0 0.3 1.6 1.5 3.5 2.7 1.9 1.3 4.9 4.4 6.7 7 1.7 2.6 6.7 12.9 11 22.8 4.4 9.9 7.8 18.9 7.6 20-0.3 1.7-1.2 2-6.3 2.3-3.3 0.2-6.9 0.1-8-0.2-1.5-0.4-3.6-4.1-7.9-14.3-3.3-7.6-7.3-16.5-8.9-19.8-1.6-3.3-4.1-7.3-5.6-8.9-1.4-1.5-4.3-3.7-6.3-4.7-2.4-1.2-7.2-2.2-21.8-3.4v24.5c0 17.9-0.3 24.8-1.2 25.7-0.7 0.8-3.7 1.3-7.2 1.3-3.6 0-6.6-0.5-7.4-1.3-1-0.9-1.2-12.8-1.1-107.8l2.4-2.5c2.4-2.4 2.7-2.4 18.2-2.4zm-3.7 51c23.2-0.6 26.2-1 29.5-2.7 2.2-1.1 5.2-3.5 6.8-5.2 1.5-1.7 3-4.4 3.3-5.9 0.4-1.5 0.5-5 0.3-7.9-0.2-3.1-1.2-6.3-2.5-8-1.1-1.5-4.2-3.9-7-5.3-4.2-2.1-6.7-2.5-17.5-2.8l-12.6-0.5zm84.8-51c4.3-0.1 7.1 0.4 7.8 1.2 0.6 0.7 7 22 14.3 47.3 7.3 25.3 13.6 46.3 13.9 46.7 0.4 0.4 6.5-20.3 13.5-46 8.3-29.8 13.5-47.1 14.5-47.9 1-0.8 4.3-1.3 7.7-1.3 3.3 0 6.5 0.4 7.2 0.8 0.7 0.4 7.6 21.9 15.3 47.7 7.7 25.9 14.2 47.2 14.5 47.5 0.2 0.3 0.7-0.2 0.9-1 0.2-0.8 6.3-22.2 13.5-47.5 7.2-25.3 13.7-46.3 14.3-46.7 0.7-0.4 3.6-0.8 6.5-0.8 2.9 0 6 0.2 6.8 0.5 0.8 0.3 1.5 1.4 1.5 2.5 0 1.1-7.5 26-16.6 55.3-10.4 33.4-17.2 53.7-18.2 54.5-1.1 0.8-4.8 1.3-9.7 1.3-6.4 0-8.4-0.4-9.7-1.8-0.9-1-7.1-20.2-13.8-42.8-6.8-22.5-12.7-41.4-13.2-42-0.5-0.5-0.8-0.6-0.8-0.2 0 0.4-5.2 19.5-11.6 42.5-7.6 27.5-12.1 42.1-13.2 43-1.1 0.8-4.8 1.2-9.7 1.2-4.4 0-8.6-0.3-9.3-0.7-0.7-0.5-4.2-10.2-7.8-21.8-3.6-11.5-11.2-36.3-17-55-7.8-25.5-10.2-34.3-9.3-35.2 0.7-0.8 3.7-1.3 7.7-1.3zm205.2 0c4.5 0 8.1 0.5 9.2 1.3 0.9 0.6 11.2 25.7 22.8 55.7 11.6 30 20.9 55.1 20.6 55.8q-0.6 1.2-8.1 1.2c-6.7 0-7.7-0.2-8.9-2.2-0.7-1.3-3.5-8-11.1-27.8h-50.5l-4.6 12.8c-2.5 7-5.2 13.7-6 15-1.3 2-2.3 2.2-8.4 2.2-5.4 0-7.1-0.3-7.5-1.5-0.3-0.8 9-25.9 20.6-55.7 11.6-29.9 21.8-54.8 22.7-55.5 1-0.8 4.7-1.3 9.2-1.3zm-12.1 46.3c-4.9 13-8.9 24.2-8.9 24.7 0 0.7 7.5 1 20.5 1 11.3 0 20.5-0.3 20.5-0.7-0.1-0.4-4.6-12.7-10.1-27.3-5.6-14.6-10.2-26.7-10.3-26.9-0.1-0.2-0.8 0.9-1.5 2.5-0.7 1.6-5.3 13.6-10.2 26.7zm105.1-46.2c8.5 0 18.6 0.4 22.5 0.9 3.8 0.5 9.7 1.9 13 3.1 4.1 1.6 7.5 3.8 10.7 7.1 3.6 3.6 5.2 6.2 6.4 10.6 1.1 3.9 1.4 7.5 1 11.5-0.3 3.1-1.5 7.5-2.6 9.7-1.1 2.2-3.5 5.5-5.4 7.3-1.9 1.8-5.7 4.3-8.5 5.7-2.9 1.4-5.2 2.7-5.1 3 0 0.3 1.5 1.5 3.2 2.6 1.8 1.2 4.5 3.9 6 6 1.5 2.2 5.8 10.7 9.6 18.9 3.8 8.3 7.6 17 8.6 19.5 1 2.5 1.5 5.3 1.2 6.3-0.5 1.5-1.8 1.7-16.1 1.2l-5.2-12c-2.8-6.6-6.5-15.1-8.2-19-1.7-3.8-4.6-8.7-6.4-10.9-1.8-2.1-4.9-4.7-7-5.7-2.2-1.1-7.4-2.2-21.7-3.4v24.5c0 17.9-0.3 24.9-1.2 25.8-0.7 0.7-3.8 1.2-7.3 1.2-3.5 0-6.5-0.5-7.3-1.2-1-1-1.2-12.9-1.2-54.8 0-29.4 0.4-53.9 0.8-54.5 0.4-0.5 1.6-1.5 2.7-2.2 1.3-0.8 7.1-1.2 17.5-1.2zm-4 50.9c16.4 0 22.6-0.6 25.7-1.5 2.9-0.8 6.7-2.8 8.5-4.3 1.8-1.6 3.9-4.2 4.6-5.8 0.8-1.7 1.2-5.3 1-8.9-0.3-4.4-1-6.9-2.9-9.4-1.3-1.9-4.4-4.3-6.9-5.4-3.4-1.5-7.5-2.1-17.1-2.5l-12.6-0.4z"/>
</svg>